# Blender v2.93.2 OBJ File: ''
# www.blender.org
o Cube2
v -0.676359 -0.152527 -0.199637
v -0.676359 -0.152527 1.074517
v -0.951417 -0.152527 1.074517
v -0.951417 -0.152527 -0.199637
v -0.982336 0.169576 -0.446845
v -0.645440 0.169576 -0.446845
v -0.645440 0.169576 1.321725
v -0.982336 0.169576 1.321725
v 0.972566 0.169576 -0.446845
v 0.972566 0.169576 1.321725
v 0.937766 -0.152527 1.074517
v 0.937766 -0.152527 -0.199637
v 0.670471 -0.152527 -0.199637
v 0.670471 -0.152527 1.074517
v 0.635670 0.169576 1.321725
v -1.361373 0.719505 0.764908
v -1.361373 0.728092 -0.633877
v -1.199288 0.184370 -0.487591
v 1.362038 0.728092 -0.633877
v 1.199953 0.184370 -0.487591
v 1.362038 0.719505 0.764908
v -1.199288 0.184370 0.769526
v 0.000333 0.719505 0.907993
v 1.134261 0.720079 0.676103
v -1.195466 0.560257 1.319799
v -1.029563 0.208078 1.319799
v 0.454995 0.385176 1.807175
v -0.454330 0.385176 1.807175
v -0.417722 0.252499 1.728305
v 1.196131 0.560257 1.319799
v 1.030228 0.202536 1.319799
v 1.199953 0.184370 0.769526
v 0.418387 0.252499 1.728305
v 0.000333 0.720079 0.795254
v -1.133595 0.720079 0.676103
v 1.134261 0.727230 -0.488702
v -1.133595 0.727230 -0.488702
v 1.134261 0.344764 -0.488702
v 1.134261 0.337613 0.676103
v 0.000333 0.337613 0.795254
v -1.133595 0.337613 0.676103
v -1.133595 0.344764 -0.488702
v 0.635670 0.169576 -0.446845
v 1.072122 0.613745 -0.289139
v 0.069343 1.153519 -0.428615
v 0.069343 0.613745 -0.289139
v 0.069343 0.614460 0.563441
v 0.069343 0.614460 -0.417248
v 0.069343 0.436758 -0.417248
v 1.072122 0.614460 -0.417248
v 1.072122 0.436758 -0.417248
v 1.072122 0.614460 0.563441
v 1.072122 0.436758 0.563441
v 0.069343 0.436758 0.563441
v 1.072122 0.614460 0.563441
v 1.072122 0.614460 -0.417248
v 0.069343 0.614460 -0.417248
v 1.072122 0.614044 -0.416215
v 0.069343 1.126589 -0.555691
v 1.072122 1.126589 -0.555691
v 0.069343 0.614044 -0.416215
v 1.072122 1.153519 -0.428615
v -0.073026 0.613745 -0.289139
v -0.073027 1.153519 -0.428615
v -1.075806 0.613745 -0.289139
v -1.075806 0.614460 0.563441
v -1.075806 0.614460 -0.417248
v -1.075806 0.436758 -0.417248
v -0.073026 0.614460 -0.417248
v -0.073026 0.436758 -0.417248
v -0.073026 0.614460 0.563441
v -0.073026 0.436758 0.563441
v -1.075806 0.436758 0.563441
v -0.073026 0.614044 -0.416215
v -1.075806 0.614044 -0.416215
v -0.073027 1.126589 -0.555691
v -1.075806 1.153519 -0.428615
v -1.075806 1.126589 -0.555691
v 0.069343 0.614460 0.563441
vt 0.983970 0.570292
vt 0.983968 0.477360
vt 0.984194 0.477259
vt 0.992023 0.223358
vt 0.990157 0.197407
vt 0.929874 0.195032
vt 0.990404 0.170569
vt 0.991247 0.092723
vt 0.928272 0.077680
vt 0.929821 0.226868
vt 0.929873 0.194784
vt 0.990157 0.223593
vt 0.989557 0.092723
vt 0.990157 0.170569
vt 0.929443 0.185733
vt 0.928181 0.077680
vt 0.929352 0.185733
vt 0.990157 0.170548
vt 0.990157 0.223207
vt 0.990157 0.197752
vt 0.929637 0.226869
vt 0.984250 0.570290
vt 0.984248 0.477357
vt 0.984467 0.477259
vt 0.929637 0.226869
vt 0.929690 0.194823
vt 0.992002 0.197285
vt 0.989560 0.092723
vt 0.990404 0.170569
vt 0.930522 0.185733
vt 0.784757 0.267393
vt 0.784076 0.619100
vt 0.646105 0.580995
vt 0.784757 0.961781
vt 0.785808 0.619067
vt 0.923427 0.639886
vt 0.785414 0.619067
vt 0.784757 0.267354
vt 0.923384 0.580969
vt 0.343747 0.316321
vt 0.344183 0.000000
vt 0.646105 0.000422
vt 0.172495 0.387882
vt 0.001032 0.352449
vt 0.029630 0.330053
vt 0.743708 0.126825
vt 0.648647 0.264914
vt 0.653289 0.125626
vt 0.742671 0.733529
vt 0.742320 0.619100
vt 0.776709 0.623601
vt 0.825806 0.126791
vt 0.917605 0.125596
vt 0.920864 0.264883
vt 0.656573 0.019524
vt 0.690430 0.000000
vt 0.879044 0.000000
vt 0.022327 0.494357
vt 0.115960 0.619355
vt 0.323286 0.493473
vt 0.362812 0.381085
vt 0.622019 0.381417
vt 0.441753 0.439545
vt 0.546970 0.439692
vt 0.172412 0.359558
vt 0.315018 0.329214
vt 0.028771 0.037397
vt 0.314158 0.036559
vt 0.343747 0.351443
vt 0.000000 0.001007
vt 0.646105 0.911976
vt 0.646672 0.619100
vt 0.742320 0.619393
vt 0.343747 0.762046
vt 0.343472 0.904742
vt 0.247239 0.905037
vt 0.095654 0.619355
vt 0.096201 0.912235
vt 0.000000 0.619648
vt 0.247514 0.762341
vt 0.246363 0.619650
vt 0.342596 0.619355
vt 0.192332 0.619355
vt 0.193207 0.904742
vt 0.097076 0.905037
vt 0.922501 0.941807
vt 0.645669 0.316742
vt 0.777032 0.728817
vt 0.912899 0.019526
vt 0.230390 0.619018
vt 0.342715 0.000000
vt 0.741753 0.912269
vt 0.000547 0.912529
vt 0.096201 0.619650
vt 0.641718 0.674026
vt 0.344606 0.851721
vt 0.356330 0.674865
vt 0.629994 0.850883
vt 0.487388 0.881227
vt 0.000000 0.000000
vt 0.000000 0.000000
vt 0.000000 0.000000
vt 0.000000 0.000000
vt 0.000000 0.000000
vt 0.000000 0.000000
vt 0.968837 0.638709
vt 0.969296 0.357968
vt 0.968840 0.357492
vt 0.970639 0.632667
vt 0.970637 0.357645
vt 0.970784 0.357492
vt 0.968630 0.357492
vt 0.968632 0.638709
vt 0.968487 0.638860
vt 0.970694 0.075976
vt 0.970691 0.350997
vt 0.970545 0.350845
vt 0.970488 0.357644
vt 0.970485 0.638860
vt 0.970340 0.638708
vt 0.000000 0.000000
vt 0.000000 0.000000
vt 0.000000 0.000000
vt 0.968487 0.075432
vt 0.969296 0.076276
vt 0.969293 0.357492
vt 0.969755 0.357945
vt 0.970192 0.638708
vt 0.970189 0.357492
vt 0.970238 0.787815
vt 0.970340 0.640528
vt 0.970233 0.638860
vt 0.970783 0.632667
vt 0.970679 0.913995
vt 0.970786 0.913883
vt 0.968837 0.638860
vt 0.968730 0.640529
vt 0.968832 0.787815
vt 0.971395 0.638272
vt 0.971852 0.637797
vt 0.971393 0.357056
vt 0.972793 0.350085
vt 0.972791 0.075064
vt 0.972938 0.074911
vt 0.970931 0.356580
vt 0.970934 0.637797
vt 0.970788 0.637948
vt 0.972734 0.356733
vt 0.972731 0.631755
vt 0.972585 0.631602
vt 0.972434 0.356580
vt 0.972437 0.637796
vt 0.972291 0.637948
vt 0.971395 0.074520
vt 0.972205 0.075364
vt 0.972202 0.356580
vt 0.972205 0.075364
vt 0.972207 0.356580
vt 0.972639 0.074911
vt 0.972590 0.780710
vt 0.972692 0.633423
vt 0.972585 0.631755
vt 0.972990 0.356580
vt 0.972886 0.637908
vt 0.972993 0.637797
vt 0.972544 0.637948
vt 0.972437 0.639616
vt 0.972539 0.786903
vt 0.984196 0.570191
vt 0.929821 0.226868
vt 0.930584 0.185733
vt 0.992067 0.197399
vt 0.931755 0.077680
vt 0.990237 0.092701
vt 0.929690 0.194786
vt 0.984469 0.570191
vt 0.991964 0.223554
vt 0.929352 0.077680
vt 0.000000 0.000000
vt 0.000000 0.000000
vt 0.969293 0.639184
vt 0.970786 0.632514
vt 0.985261 0.357644
vt 0.985407 0.357492
vt 0.985264 0.638860
vt 0.970547 0.075823
vt 0.970342 0.357492
vt 0.000000 0.000000
vt 0.968484 0.356649
vt 0.969757 0.639161
vt 0.970339 0.796873
vt 0.970676 0.632778
vt 0.968731 0.796873
vt 0.971849 0.356580
vt 0.972940 0.349933
vt 0.970786 0.356732
vt 0.972587 0.356580
vt 0.972289 0.356732
vt 0.971393 0.355737
vt 0.972642 0.356127
vt 0.972691 0.789768
vt 0.972883 0.356692
vt 0.972438 0.795961
vn 0.0000 -1.0000 -0.0000
vn 0.0000 -0.6088 -0.7933
vn 0.9954 -0.0956 -0.0000
vn 0.0000 -0.6088 0.7933
vn -0.9954 -0.0956 -0.0000
vn 0.9942 -0.1074 -0.0000
vn -0.9942 -0.1074 -0.0000
vn -0.9580 -0.2868 -0.0014
vn -0.9582 -0.2861 -0.0018
vn -0.9573 -0.2891 -0.0004
vn 0.0000 -0.2598 -0.9657
vn 0.9582 -0.2861 -0.0018
vn 0.9580 -0.2868 -0.0014
vn 0.9573 -0.2891 -0.0004
vn 0.0000 1.0000 0.0051
vn 0.0002 1.0000 0.0058
vn 0.0004 1.0000 0.0055
vn -0.8671 -0.4085 0.2851
vn 0.0000 -0.5110 0.8596
vn 0.8704 -0.4037 0.2818
vn -0.4376 -0.5456 0.7147
vn 0.5727 -0.2656 0.7755
vn 0.0298 0.9584 0.2840
vn 0.0000 0.9411 0.3381
vn -0.0027 -0.9990 0.0439
vn -0.0006 -0.9994 0.0354
vn -0.0020 -0.9992 0.0412
vn 0.0000 -0.9941 0.1081
vn -0.0026 -0.9931 0.1172
vn -0.0007 -0.9939 0.1105
vn -0.0004 1.0000 0.0055
vn 0.0001 1.0000 0.0060
vn -0.0001 1.0000 0.0060
vn -0.0002 1.0000 0.0058
vn 0.0001 1.0000 0.0061
vn -1.0000 0.0000 0.0000
vn 0.1045 0.0000 -0.9945
vn 1.0000 0.0000 0.0000
vn -0.1045 0.0000 -0.9945
vn 0.0000 -0.0000 1.0000
vn -0.9571 -0.2899 -0.0000
vn 0.9571 -0.2899 -0.0000
vn -0.9383 -0.2825 0.1995
vn 0.9383 -0.2825 0.1995
vn -0.5728 -0.2698 0.7740
vn 0.4340 -0.5458 0.7168
vn 0.0000 0.9327 0.3607
vn -0.0298 0.9584 0.2840
vn 0.0000 -0.9995 0.0330
vn -0.0027 -0.9931 0.1175
vn -0.0001 1.0000 0.0061
vn 0.0003 1.0000 0.0055
vn 0.0000 1.0000 0.0061
vn -0.0006 1.0000 0.0061
vn -0.0004 1.0000 0.0060
vn 0.0000 1.0000 0.0000
vn 0.0000 0.2502 0.9682
vn 0.0000 0.0000 -1.0000
vn 0.0000 -0.2626 -0.9649
vn 0.0000 0.9783 -0.2073
s 1
f 1/1/1 2/2/1 3/3/1
f 1/4/2 4/5/2 5/6/2
f 2/7/3 1/8/3 6/9/3
f 7/10/4 8/11/4 2/12/4
f 4/13/5 3/14/5 8/15/5
f 9/16/6 10/17/6 11/18/6
f 12/19/2 13/20/2 9/21/2
f 12/22/1 11/23/1 14/24/1
f 10/25/4 15/26/4 14/27/4
f 13/28/7 14/29/7 15/30/7
f 16/31/8 17/32/9 18/33/10
f 17/34/11 19/35/11 20/36/11
f 19/37/12 21/38/13 20/39/14
f 22/40/1 18/41/1 20/42/1
f 23/43/15 21/44/16 24/45/17
f 25/46/18 22/47/18 26/48/18
f 27/49/19 28/50/19 29/51/19
f 30/52/20 31/53/20 32/54/20
f 29/55/21 28/56/21 26/48/21
f 31/53/22 30/52/22 27/57/22
f 30/58/23 21/44/23 23/43/23
f 27/59/24 30/58/24 25/60/24
f 26/61/25 22/40/26 31/62/27
f 29/63/28 26/61/29 33/64/30
f 34/65/15 35/66/31 23/43/15
f 36/67/32 24/45/17 21/44/16
f 37/68/33 16/69/34 35/66/31
f 37/68/33 36/67/32 19/70/35
f 38/71/36 39/72/36 24/73/36
f 40/74/37 41/75/37 35/76/37
f 41/77/38 42/78/38 35/79/38
f 34/80/39 24/81/39 39/82/39
f 42/83/40 38/84/40 36/85/40
f 22/47/41 16/31/8 18/33/10
f 18/86/11 17/34/11 20/36/11
f 21/38/13 32/54/42 20/39/14
f 32/87/1 22/40/1 20/42/1
f 34/65/15 23/43/15 24/45/17
f 16/31/43 22/47/43 25/46/43
f 33/88/19 27/49/19 29/51/19
f 21/38/44 30/52/44 32/54/44
f 28/56/45 25/46/45 26/48/45
f 33/89/46 31/53/46 27/57/46
f 25/60/47 30/58/47 23/43/47
f 16/69/48 25/60/48 23/43/48
f 28/90/24 27/59/24 25/60/24
f 22/40/26 32/87/49 31/62/27
f 26/61/29 31/62/50 33/64/30
f 35/66/31 16/69/34 23/43/15
f 19/70/35 36/67/32 21/44/16
f 17/91/51 16/69/34 37/68/33
f 17/91/51 37/68/33 19/70/35
f 36/92/36 38/71/36 24/73/36
f 34/80/37 40/74/37 35/76/37
f 42/78/38 37/93/38 35/79/38
f 40/74/39 34/80/39 39/82/39
f 37/94/40 42/83/40 36/85/40
f 42/95/52 39/96/52 38/97/53
f 41/98/54 40/99/55 42/95/52
f 40/99/55 39/96/52 42/95/52
f 6/100/56 5/101/56 8/102/56
f 9/103/56 43/104/56 15/105/56
f 44/106/57 45/107/57 46/108/57
f 47/109/36 48/110/36 49/111/36
f 48/112/58 50/113/58 51/114/58
f 50/115/38 52/116/38 53/117/38
f 52/118/40 47/119/40 54/120/40
f 55/121/56 56/122/56 57/123/56
f 52/124/56 50/125/56 48/126/56
f 58/127/59 59/128/59 60/129/59
f 61/130/36 45/131/36 59/132/36
f 59/133/60 62/134/60 60/135/60
f 60/136/38 62/137/38 58/138/38
f 63/139/57 64/140/57 65/141/57
f 66/142/36 67/143/36 68/144/36
f 67/145/58 69/146/58 70/147/58
f 69/148/38 71/149/38 72/150/38
f 71/151/40 66/152/40 73/153/40
f 71/154/56 69/155/56 67/156/56
f 74/157/59 75/158/59 76/159/59
f 75/160/36 77/161/36 78/162/36
f 78/163/60 64/164/60 76/165/60
f 76/166/38 64/167/38 74/168/38
f 4/169/1 1/1/1 3/3/1
f 6/170/2 1/4/2 5/6/2
f 7/171/3 2/7/3 6/9/3
f 8/11/4 3/172/4 2/12/4
f 5/173/5 4/13/5 8/15/5
f 12/174/6 9/16/6 11/18/6
f 13/20/2 43/175/2 9/21/2
f 13/176/1 12/22/1 14/24/1
f 11/177/4 10/25/4 14/27/4
f 43/178/7 13/28/7 15/30/7
f 7/179/56 6/100/56 8/102/56
f 10/180/56 9/103/56 15/105/56
f 62/181/57 45/107/57 44/106/57
f 54/182/36 47/109/36 49/111/36
f 49/183/58 48/184/58 51/185/58
f 51/186/38 50/115/38 53/117/38
f 53/187/40 52/118/40 54/120/40
f 79/188/56 55/121/56 57/123/56
f 47/189/56 52/124/56 48/126/56
f 61/190/59 59/128/59 58/127/59
f 46/191/36 45/131/36 61/130/36
f 45/192/60 62/134/60 59/133/60
f 58/138/38 62/137/38 44/193/38
f 65/141/57 64/140/57 77/194/57
f 73/195/36 66/142/36 68/144/36
f 68/196/58 67/145/58 70/147/58
f 70/197/38 69/148/38 72/150/38
f 72/198/40 71/151/40 73/153/40
f 66/199/56 71/154/56 67/156/56
f 76/159/59 75/158/59 78/200/59
f 65/201/36 77/161/36 75/160/36
f 77/202/60 64/164/60 78/163/60
f 74/168/38 64/167/38 63/203/38
