# Blender v2.93.2 OBJ File: ''
# www.blender.org
o Cube.003
v -0.680849 0.719505 0.764908
v -0.680849 0.728092 -0.633877
v -0.599807 0.184370 -0.487591
v 0.680849 0.728092 -0.633877
v 0.599807 0.184370 -0.487591
v 0.680849 0.719505 0.764908
v -0.599807 0.184370 0.769526
v 0.566961 0.727230 -0.488702
v 0.566961 0.720079 0.676103
v -0.566961 0.727230 -0.488702
v -0.566961 0.720079 0.676103
v 0.566961 0.344764 -0.488702
v 0.566961 0.337613 0.676103
v -0.566961 0.337613 0.676103
v -0.566961 0.344764 -0.488702
v 0.599807 0.184370 0.769526
v 0.574137 0.011717 0.755290
v 0.368692 0.177773 0.755290
v 0.368692 0.177773 0.423793
v 0.368692 -0.145005 0.755290
v 0.368692 -0.145005 0.423793
v 0.660655 0.010415 0.755290
v 0.660655 0.010415 0.423793
v 0.455210 0.176471 0.423793
v 0.455210 -0.145005 0.755290
v 0.455210 -0.145005 0.423793
v 0.574137 0.011717 0.423793
v 0.455210 0.176471 0.755290
v 0.574137 0.011717 -0.130188
v 0.368692 0.177773 -0.130188
v 0.368692 0.177773 -0.461685
v 0.368692 -0.145005 -0.130188
v 0.574137 0.011717 -0.461685
v 0.660655 0.010415 -0.130188
v 0.660655 0.010415 -0.461685
v 0.455210 0.176471 -0.461685
v 0.455210 -0.145005 -0.130188
v 0.455210 -0.145005 -0.461685
v 0.368692 -0.145005 -0.461685
v 0.455210 0.176471 -0.130188
v -0.575176 0.011717 0.755290
v -0.369731 0.177773 0.423793
v -0.369731 0.177773 0.755290
v -0.369731 -0.145005 0.755290
v -0.369731 -0.145005 0.423793
v -0.661695 0.010415 0.755290
v -0.456250 0.176471 0.423793
v -0.661695 0.010415 0.423793
v -0.456250 -0.145005 0.755290
v -0.456250 -0.145005 0.423793
v -0.575176 0.011717 0.423793
v -0.456250 0.176471 0.755290
v -0.575176 0.011717 -0.130188
v -0.369731 0.177773 -0.461685
v -0.369731 0.177773 -0.130188
v -0.369731 -0.145005 -0.130188
v -0.575176 0.011717 -0.461685
v -0.661695 0.010415 -0.130188
v -0.456250 0.176471 -0.461685
v -0.661695 0.010415 -0.461685
v -0.456250 -0.145005 -0.130188
v -0.456250 -0.145005 -0.461685
v -0.369731 -0.145005 -0.461685
v -0.456250 0.176471 -0.130188
vt 0.783101 0.613948
vt 0.839344 0.943580
vt 0.961243 0.886496
vt 0.839344 0.943580
vt 0.961243 0.886496
vt 0.783101 0.613948
vt 0.540647 0.733962
vt 0.541796 0.439850
vt 0.541796 0.439850
vt 0.908880 0.590570
vt 0.267892 0.741285
vt 0.267892 0.888793
vt 0.282314 0.900039
vt 0.124295 0.741285
vt 0.109872 0.900039
vt 0.124295 0.888793
vt 0.282314 0.722901
vt 0.710386 0.815332
vt 0.710207 0.690126
vt 0.721015 0.680383
vt 0.586796 0.691874
vt 0.590117 0.816988
vt 0.575631 0.682446
vt 0.720903 0.827512
vt 0.908880 0.590570
vt 0.540647 0.733962
vt 0.109872 0.722901
vt 0.579859 0.829448
vt 0.952952 0.697454
vt 0.918527 0.697613
vt 0.918210 0.628891
vt 0.985442 0.697303
vt 0.985124 0.628582
vt 0.953222 0.697452
vt 0.952904 0.628731
vt 0.918480 0.628890
vt 0.985442 0.697303
vt 0.985124 0.628582
vt 0.952634 0.628732
vt 0.617719 0.730932
vt 0.618022 0.653376
vt 0.618022 0.653376
vt 0.542508 0.730638
vt 0.542811 0.653082
vt 0.542506 0.653081
vt 0.945712 0.706140
vt 0.945712 0.666443
vt 0.945712 0.705829
vt 0.952103 0.513888
vt 0.917679 0.514047
vt 0.917361 0.445326
vt 0.984593 0.513738
vt 0.951786 0.445167
vt 0.952373 0.513887
vt 0.952056 0.445165
vt 0.917631 0.445324
vt 0.984593 0.513738
vt 0.984275 0.445016
vt 0.984275 0.445016
vt 0.618529 0.523768
vt 0.618832 0.446212
vt 0.618832 0.446212
vt 0.543317 0.523474
vt 0.543620 0.445918
vt 0.543315 0.445917
vt 0.917949 0.514046
vt 0.952952 0.697454
vt 0.918210 0.628891
vt 0.918527 0.697613
vt 0.985442 0.697303
vt 0.985124 0.628582
vt 0.953222 0.697452
vt 0.918480 0.628890
vt 0.952904 0.628731
vt 0.985442 0.697303
vt 0.985124 0.628582
vt 0.952634 0.628732
vt 0.617719 0.730932
vt 0.618022 0.653376
vt 0.618022 0.653376
vt 0.542508 0.730638
vt 0.542506 0.653081
vt 0.542811 0.653082
vt 0.918797 0.697611
vt 0.952103 0.513888
vt 0.917361 0.445326
vt 0.917679 0.514047
vt 0.984593 0.513738
vt 0.951786 0.445167
vt 0.952373 0.513887
vt 0.917631 0.445324
vt 0.952056 0.445165
vt 0.984593 0.513738
vt 0.984275 0.445016
vt 0.984275 0.445016
vt 0.618529 0.523768
vt 0.618832 0.446212
vt 0.618832 0.446212
vt 0.543317 0.523474
vt 0.543315 0.445917
vt 0.543620 0.445918
vt 0.917949 0.514046
vt 0.918797 0.697611
vt 0.617719 0.730932
vt 0.542203 0.730637
vt 0.618529 0.523768
vt 0.543012 0.523473
vt 0.617719 0.730932
vt 0.542203 0.730637
vt 0.618529 0.523768
vt 0.543012 0.523473
vn -0.9890 -0.1481 -0.0007
vn -0.9890 -0.1477 -0.0009
vn -0.9888 -0.1493 -0.0002
vn 0.0000 -0.2598 -0.9657
vn 0.9890 -0.1477 -0.0009
vn 0.9890 -0.1481 -0.0007
vn 0.9888 -0.1493 -0.0002
vn 0.0000 -1.0000 -0.0000
vn 0.0000 0.0086 1.0000
vn 0.0001 1.0000 0.0060
vn 0.0001 1.0000 0.0063
vn -0.0001 1.0000 0.0060
vn -0.0001 1.0000 0.0063
vn -1.0000 0.0000 0.0000
vn 1.0000 0.0000 0.0000
vn 0.0000 -0.0000 1.0000
vn -0.9887 -0.1497 -0.0000
vn 0.9887 -0.1497 -0.0000
vn 0.0000 1.0000 0.0061
vn 0.0000 0.0000 -1.0000
vn -0.6286 -0.7777 -0.0000
vn -0.6065 0.7951 0.0000
vn 0.6286 0.7777 0.0000
vn 0.6033 -0.7975 -0.0000
vn 0.0150 0.9999 0.0000
vn 0.6286 -0.7777 -0.0000
vn 0.6065 0.7951 0.0000
vn -0.6286 0.7777 0.0000
vn -0.6033 -0.7975 -0.0000
vn -0.0150 0.9999 0.0000
s 1
f 1/1/1 2/2/2 3/3/3
f 2/2/4 4/4/4 5/5/4
f 4/4/5 6/6/6 5/5/7
f 7/7/8 3/8/8 5/9/8
f 1/1/9 7/10/9 6/6/9
f 8/11/10 9/12/11 6/13/11
f 10/14/12 1/15/13 11/16/13
f 10/14/12 8/11/10 4/17/10
f 12/18/14 13/19/14 9/20/14
f 14/21/15 15/22/15 11/23/15
f 15/22/16 12/18/16 8/24/16
f 7/10/17 1/1/1 3/3/3
f 3/3/4 2/2/4 5/5/4
f 6/6/6 16/25/18 5/5/7
f 16/26/8 7/7/8 5/9/8
f 14/21/19 13/19/19 15/22/19
f 11/16/13 1/15/13 9/12/11
f 1/15/13 6/13/11 9/12/11
f 4/17/10 8/11/10 6/13/11
f 2/27/12 1/15/13 10/14/12
f 2/27/12 10/14/12 4/17/10
f 8/24/14 12/18/14 9/20/14
f 15/22/15 10/28/15 11/23/15
f 14/21/20 11/23/20 13/19/20
f 10/28/16 15/22/16 8/24/16
f 17/29/21 18/30/21 19/31/21
f 20/32/22 17/29/22 21/33/22
f 22/34/23 23/35/23 24/36/23
f 25/37/24 26/38/24 22/34/24
f 21/33/20 27/39/20 26/38/20
f 20/40/8 21/41/8 26/42/8
f 28/43/25 24/44/25 19/45/25
f 18/46/16 17/47/16 28/48/16
f 17/29/16 20/32/16 25/37/16
f 27/39/20 19/31/20 24/36/20
f 29/49/21 30/50/21 31/51/21
f 32/52/22 29/49/22 33/53/22
f 34/54/23 35/55/23 36/56/23
f 37/57/24 38/58/24 35/55/24
f 39/59/20 33/53/20 38/58/20
f 32/60/8 39/61/8 38/62/8
f 40/63/25 36/64/25 31/65/25
f 30/50/16 29/49/16 40/66/16
f 29/49/16 32/52/16 37/57/16
f 33/53/20 31/51/20 36/56/20
f 41/67/26 42/68/26 43/69/26
f 44/70/27 45/71/27 41/67/27
f 46/72/28 47/73/28 48/74/28
f 49/75/29 46/72/29 50/76/29
f 45/71/20 50/76/20 51/77/20
f 44/78/8 50/79/8 45/80/8
f 52/81/30 42/82/30 47/83/30
f 43/69/16 52/84/16 41/67/16
f 41/67/16 49/75/16 44/70/16
f 51/77/20 47/73/20 42/68/20
f 53/85/26 54/86/26 55/87/26
f 56/88/27 57/89/27 53/85/27
f 58/90/28 59/91/28 60/92/28
f 61/93/29 60/92/29 62/94/29
f 63/95/20 62/94/20 57/89/20
f 56/96/8 62/97/8 63/98/8
f 64/99/30 54/100/30 59/101/30
f 55/87/16 64/102/16 53/85/16
f 53/85/16 61/93/16 56/88/16
f 57/89/20 59/91/20 54/86/20
f 27/39/21 17/29/21 19/31/21
f 17/29/22 27/39/22 21/33/22
f 28/103/23 22/34/23 24/36/23
f 26/38/24 23/35/24 22/34/24
f 27/39/20 23/35/20 26/38/20
f 25/104/8 20/40/8 26/42/8
f 18/105/25 28/43/25 19/45/25
f 17/29/16 22/34/16 28/103/16
f 22/34/16 17/29/16 25/37/16
f 23/35/20 27/39/20 24/36/20
f 33/53/21 29/49/21 31/51/21
f 39/59/22 32/52/22 33/53/22
f 40/66/23 34/54/23 36/56/23
f 34/54/24 37/57/24 35/55/24
f 33/53/20 35/55/20 38/58/20
f 37/106/8 32/60/8 38/62/8
f 30/107/25 40/63/25 31/65/25
f 29/49/16 34/54/16 40/66/16
f 34/54/16 29/49/16 37/57/16
f 35/55/20 33/53/20 36/56/20
f 51/77/26 42/68/26 41/67/26
f 41/67/27 45/71/27 51/77/27
f 52/84/28 47/73/28 46/72/28
f 50/76/29 46/72/29 48/74/29
f 51/77/20 50/76/20 48/74/20
f 49/108/8 50/79/8 44/78/8
f 43/109/30 42/82/30 52/81/30
f 41/67/16 52/84/16 46/72/16
f 46/72/16 49/75/16 41/67/16
f 48/74/20 47/73/20 51/77/20
f 57/89/26 54/86/26 53/85/26
f 63/95/27 57/89/27 56/88/27
f 64/102/28 59/91/28 58/90/28
f 58/90/29 60/92/29 61/93/29
f 57/89/20 62/94/20 60/92/20
f 61/110/8 62/97/8 56/96/8
f 55/111/30 54/100/30 64/99/30
f 53/85/16 64/102/16 58/90/16
f 58/90/16 61/93/16 53/85/16
f 60/92/20 59/91/20 57/89/20
f 15/22/19 13/19/19 12/18/19
f 11/23/20 9/20/20 13/19/20
f 7/10/9 16/25/9 6/6/9
