# Blender v2.93.2 OBJ File: ''
# www.blender.org
o Cube.003
v -0.352796 -2.276555 1.057272
v -0.442160 -2.008729 1.261954
v -0.330034 -2.077795 0.505721
v -0.330478 -2.284740 0.388920
v 0.443152 -0.587263 0.054617
v 0.327325 -2.286113 0.388921
v -0.439104 -0.544147 0.252737
v -0.439191 -0.585422 0.054615
v 0.327769 -2.079168 0.505722
v 0.660802 0.057974 -0.171006
v 0.660802 0.058482 0.393397
v -0.635534 0.061187 0.393394
v 0.443239 -0.545988 0.252739
v 0.207250 -1.386029 -0.101259
v 0.207346 -1.339645 0.147495
v 0.566207 0.380663 -0.246041
v -0.539592 0.383042 -0.246043
v -0.635534 0.060679 -0.171009
v -0.635754 -0.045096 -0.306755
v -0.635754 -0.044665 0.172172
v 0.660582 -0.047370 0.172175
v 0.660582 -0.047801 -0.306752
v 0.572968 -0.362038 0.229652
v -0.549454 -0.359630 0.229650
v 0.349696 -2.278021 1.057274
v 0.440183 -2.010571 1.261955
v 0.210041 0.121989 -0.124551
v -0.208416 -1.338777 0.147494
v -0.205721 0.122857 -0.124551
v -0.205625 0.169241 0.124203
v 0.210137 0.168374 0.124204
v -0.208512 -1.385161 -0.101260
v 0.111074 -2.264609 0.387888
v 0.111528 -2.095336 0.348611
v -0.115195 -2.094793 0.348610
v -0.115649 -2.264065 0.387887
v -0.276080 -0.544977 0.040840
v -0.275874 -0.424853 0.017289
v -0.275823 -0.394287 0.703826
v -0.276062 -0.533847 0.578650
v -0.413769 -0.544741 0.040839
v -0.413563 -0.424617 0.017289
v -0.413512 -0.394051 0.703825
v -0.413750 -0.533612 0.578650
v -0.190537 -1.494258 0.940231
v -0.190591 -1.526388 0.801173
v -0.332517 -1.620323 0.976577
v -0.331020 -1.664968 0.823184
v 0.421347 -0.546172 0.040841
v 0.421552 -0.426048 0.017290
v 0.421604 -0.395481 0.703827
v 0.421365 -0.535042 0.578651
v 0.283658 -0.545936 0.040841
v 0.283864 -0.425812 0.017290
v 0.283915 -0.395245 0.703827
v 0.283677 -0.534806 0.578651
v 0.340888 -1.622698 0.976579
v 0.340811 -1.667340 0.823187
v 0.210135 -1.501194 0.940237
v 0.210081 -1.533325 0.801180
vt 0.986774 0.672114
vt 0.988683 0.699895
vt 0.986766 0.687252
vt 0.989030 0.686179
vt 0.983745 0.815277
vt 0.983733 0.800140
vt 0.985648 0.787044
vt 0.985998 0.800677
vt 0.981201 0.656063
vt 0.980701 0.656063
vt 0.981003 0.500768
vt 0.981518 0.517019
vt 0.989474 0.789478
vt 0.989030 0.789478
vt 0.989030 0.772447
vt 0.989474 0.772447
vt 0.986498 0.721587
vt 0.986498 0.787335
vt 0.985998 0.787333
vt 0.985998 0.721584
vt 0.985998 0.721584
vt 0.985998 0.643900
vt 0.986498 0.643886
vt 0.986498 0.721570
vt 0.982878 0.511727
vt 0.983190 0.511696
vt 0.982878 0.561294
vt 0.989030 0.825357
vt 0.988716 0.825720
vt 0.986766 0.643886
vt 0.986266 0.643886
vt 0.985949 0.518148
vt 0.986458 0.500771
vt 0.985623 0.643885
vt 0.985998 0.645300
vt 0.986777 0.500622
vt 0.988681 0.528839
vt 0.986766 0.515759
vt 0.989030 0.515203
vt 0.980709 0.810312
vt 0.980701 0.795173
vt 0.982619 0.782610
vt 0.982965 0.796340
vt 0.983733 0.656063
vt 0.983233 0.656063
vt 0.982972 0.516270
vt 0.983448 0.500622
vt 0.989030 0.755416
vt 0.989474 0.755416
vt 0.989474 0.772447
vt 0.989030 0.772447
vt 0.983465 0.733764
vt 0.983465 0.799513
vt 0.982965 0.799510
vt 0.982965 0.733762
vt 0.982965 0.733762
vt 0.982965 0.656077
vt 0.983465 0.656063
vt 0.983465 0.733748
vt 0.983190 0.561262
vt 0.989030 0.670696
vt 0.988655 0.672114
vt 0.978081 0.654959
vt 0.977581 0.654959
vt 0.977867 0.511696
vt 0.978342 0.528462
vt 0.976813 0.807413
vt 0.976467 0.793684
vt 0.976499 0.667137
vt 0.976813 0.667513
vt 0.989402 0.672119
vt 0.989030 0.755216
vt 0.989030 0.672114
vt 0.989402 0.755416
vt 0.979797 0.529221
vt 0.980306 0.511844
vt 0.943961 0.346494
vt 0.943889 0.352793
vt 0.940645 0.354228
vt 0.935673 0.305267
vt 0.931750 0.345008
vt 0.931774 0.305207
vt 0.940726 0.387781
vt 0.939609 0.387490
vt 0.935693 0.351439
vt 0.939572 0.317847
vt 0.939592 0.351378
vt 0.533144 0.522165
vt 0.507040 0.522252
vt 0.506282 0.456604
vt 0.943944 0.346203
vt 0.942828 0.346494
vt 0.942909 0.312940
vt 0.326870 0.197223
vt 0.405982 0.197159
vt 0.405982 0.197159
vt 0.326870 0.197223
vt 0.218589 0.287618
vt 0.281485 0.287566
vt 0.219346 0.353265
vt 0.312573 0.564647
vt 0.264138 0.553921
vt 0.312424 0.528390
vt 0.221104 0.368997
vt 0.221860 0.434645
vt 0.108393 0.434737
vt 0.215851 0.528390
vt 0.264138 0.553921
vt 0.215703 0.564647
vt 0.530877 0.625518
vt 0.509293 0.625591
vt 0.508536 0.559943
vt 0.215670 0.559890
vt 0.169541 0.538973
vt 0.215703 0.528404
vt 0.222617 0.434737
vt 0.221860 0.369090
vt 0.282740 0.369040
vt 0.153797 0.538973
vt 0.107668 0.559890
vt 0.107635 0.528404
vt 0.212872 0.287566
vt 0.213628 0.353214
vt 0.114064 0.353296
vt 0.938443 0.301082
vt 0.937195 0.301101
vt 0.937183 0.281407
vt 0.935692 0.393329
vt 0.935680 0.373634
vt 0.938928 0.373584
vt 0.935680 0.351499
vt 0.939579 0.351439
vt 0.939592 0.373523
vt 0.939664 0.311505
vt 0.939592 0.305207
vt 0.259029 0.193212
vt 0.307179 0.193221
vt 0.307110 0.221945
vt 0.687456 0.262075
vt 0.639407 0.262114
vt 0.639164 0.241060
vt 0.326538 0.168507
vt 0.236715 0.287566
vt 0.157603 0.287502
vt 0.157934 0.258781
vt 0.307179 0.258926
vt 0.259029 0.258934
vt 0.258961 0.230209
vt 0.939592 0.347660
vt 0.237047 0.258845
vt 0.157934 0.258781
vt 0.237047 0.258845
vt 0.259029 0.193212
vt 0.307179 0.193221
vt 0.532387 0.456516
vt 0.943961 0.306372
vt 0.282242 0.353214
vt 0.107635 0.369090
vt 0.530120 0.559869
vt 0.283497 0.434688
vt 0.113307 0.287648
vt 0.938431 0.281388
vt 0.938940 0.393278
vt 0.935693 0.373584
vt 0.258961 0.221937
vt 0.307110 0.230202
vt 0.258961 0.230209
vt 0.307110 0.230202
vt 0.687214 0.241021
vt 0.405651 0.168443
vn 1.0000 -0.0017 0.0000
vn -1.0000 0.0017 -0.0000
vn 0.0298 0.2157 0.9760
vn -0.0003 -0.1924 -0.9813
vn -0.0017 -0.9998 0.0207
vn 0.0017 0.9990 -0.0445
vn 0.0169 0.9742 -0.2251
vn 0.9964 0.0710 -0.0472
vn 0.0284 -0.2125 -0.9767
vn -0.9975 -0.0614 0.0361
vn -0.0345 0.2153 0.9759
vn 0.9975 -0.0598 0.0384
vn -0.0261 -0.2122 -0.9769
vn -0.9974 0.0614 -0.0388
vn 0.0047 0.2721 0.9622
vn 0.0010 0.2876 0.9578
vn -0.0034 -0.9602 0.2794
vn -0.0027 -0.1542 -0.9880
vn -0.0006 -0.1626 -0.9867
vn -0.9758 -0.1897 -0.1086
vn -0.9658 -0.2288 -0.1223
vn -0.9990 -0.0397 0.0195
vn -0.0055 -0.1931 -0.9812
vn 0.1180 0.3929 -0.9120
vn -0.0004 -0.1931 -0.9812
vn -0.9975 -0.0685 0.0147
vn -0.9976 -0.0672 0.0192
vn 0.0025 0.1744 0.9847
vn -0.2617 0.7949 0.5474
vn 0.0003 0.1628 0.9867
vn -0.0021 -1.0000 0.0009
vn 0.9973 -0.0713 0.0192
vn 0.9972 -0.0727 0.0147
vn 0.9988 -0.0439 0.0194
vn 0.7247 0.1054 0.6810
vn -0.7240 0.1083 0.6813
vn -0.8450 0.0563 0.5317
vn 0.8460 0.0527 0.5306
vn -0.0005 -0.2266 -0.9740
vn -0.9585 0.2852 -0.0003
vn 0.0019 0.8931 0.4498
vn 0.9596 0.2813 -0.0003
vn 0.0021 1.0000 -0.0009
vn 0.9634 -0.2682 0.0002
vn 0.0004 0.1796 0.9837
vn -0.9645 -0.2642 0.0002
vn -0.0018 -0.8627 -0.5056
vn -0.0018 -0.8627 -0.5057
vn -0.0013 -0.6075 0.7943
vn 0.0021 0.9959 -0.0906
vn -0.0021 -0.9999 0.0122
vn 0.9648 -0.2328 -0.1223
vn 0.9750 -0.1938 -0.1086
vn 1.0000 -0.0019 -0.0000
vn 0.0012 0.5699 -0.8217
vn 0.0017 0.8384 0.5451
vn 0.0021 0.9831 -0.1833
vn 0.0000 0.0154 0.9999
vn -0.0000 -0.0154 -0.9999
vn -1.0000 0.0019 0.0000
vn -0.9999 -0.0063 0.0150
vn -0.6531 -0.4289 -0.6241
vn 0.6510 -0.4315 -0.6246
vn 0.1730 -0.4960 -0.8509
vn -0.1754 -0.4954 -0.8508
vn 0.9998 -0.0106 0.0149
vn 0.0019 0.8932 0.4497
vn -0.0018 -0.8628 -0.5056
s off
f 38/1/1 40/2/1 37/3/1
f 39/4/1 40/2/1 38/1/1
f 42/5/2 41/6/2 44/7/2
f 43/8/2 42/5/2 44/7/2
f 39/9/3 43/10/3 47/11/3 45/12/3
f 38/13/4 37/14/4 41/15/4 42/16/4
f 37/17/5 40/18/5 44/19/5 41/20/5
f 39/21/6 38/22/6 42/23/6 43/24/6
f 46/25/7 45/26/7 60/27/7
f 40/2/8 39/4/8 45/28/8 46/29/8
f 44/30/9 40/31/9 46/32/9 48/33/9
f 43/8/10 44/7/10 48/34/10 47/35/10
f 50/36/1 52/37/1 49/38/1
f 51/39/1 52/37/1 50/36/1
f 54/40/2 53/41/2 56/42/2
f 55/43/2 54/40/2 56/42/2
f 51/44/11 55/45/11 59/46/11 57/47/11
f 50/48/4 49/49/4 53/50/4 54/51/4
f 49/52/5 52/53/5 56/54/5 53/55/5
f 51/56/6 50/57/6 54/58/6 55/59/6
f 45/26/7 59/60/7 60/27/7
f 52/37/12 51/39/12 57/61/12 58/62/12
f 56/63/13 52/64/13 58/65/13 60/66/13
f 55/67/14 56/68/14 60/69/14 59/70/14
f 45/12/15 47/11/15 59/46/15
f 59/46/16 47/11/16 57/47/16
f 57/71/17 48/72/17 58/73/17
f 47/74/17 48/72/17 57/71/17
f 46/75/18 60/66/18 48/76/18
f 60/66/19 58/65/19 48/76/19
s 1
f 1/77/20 2/78/21 3/79/22
f 4/80/23 5/81/24 6/82/25
f 7/83/26 8/84/27 3/79/22
f 9/85/28 7/86/29 3/87/30
f 10/88/31 11/89/31 12/90/31
f 5/91/32 13/92/33 9/93/34
f 15/94/35 28/95/36 35/96/37 34/97/38
f 16/98/39 10/99/39 17/100/39
f 17/101/40 18/102/40 12/103/40
f 16/104/41 17/105/41 12/106/41
f 11/107/42 10/108/42 16/109/42
f 19/110/43 20/111/43 21/112/43
f 22/113/44 21/114/44 23/115/44
f 21/116/45 20/117/45 24/118/45
f 20/119/46 19/120/46 24/121/46
f 19/122/47 22/123/48 23/124/48
f 25/125/49 26/126/49 2/127/49
f 2/128/50 26/129/50 9/130/50
f 25/131/51 1/132/51 4/133/51
f 26/134/52 25/135/53 9/93/34
f 15/136/54 14/137/54 27/138/54
f 8/84/55 7/83/29 13/92/56
f 29/139/57 30/140/57 31/141/57
f 28/95/58 15/94/58 31/142/58
f 29/143/59 27/144/59 14/145/59
f 30/146/60 29/147/60 32/148/60
f 4/149/61 1/77/20 3/79/22
f 5/81/24 4/149/23 8/84/55
f 8/84/27 4/149/61 3/79/22
f 32/150/62 14/145/63 33/151/64 36/152/65
f 14/137/63 15/136/35 34/153/38 33/154/64
f 13/92/56 7/86/29 9/93/28
f 18/155/31 10/88/31 12/90/31
f 6/156/66 5/91/32 9/93/34
f 13/92/56 5/81/24 8/84/55
f 17/100/39 10/99/39 18/157/39
f 11/158/67 16/104/41 12/106/41
f 22/159/43 19/110/43 21/112/43
f 23/160/45 21/116/45 24/118/45
f 24/161/68 19/122/47 23/124/48
f 1/162/49 25/125/49 2/127/49
f 3/163/50 2/128/50 9/130/50
f 6/164/51 25/131/51 4/133/51
f 25/135/53 6/156/66 9/93/34
f 31/165/54 15/136/54 27/138/54
f 28/166/36 32/148/62 36/167/65 35/168/37
f 27/169/57 29/139/57 31/141/57
f 30/170/58 28/95/58 31/142/58
f 32/150/59 29/143/59 14/145/59
f 28/166/60 30/146/60 32/148/60
